{"title":"Cali Y El Dandee Ft. Juan Magan - Por Fin Te Encontre [1080p]","uid":12668920,"size":88565105,"categoryP":"video","categoryS":"music_videos","magnet":"?xt=urn:btih:268993b8e83cd4e76da0e072c0eccb5d6e780bbe&amp;dn=Cali+Y+El+Dandee+Ft.+Juan+Magan+-+Por+Fin+Te+Encontre+%5B1080p%5D&amp;tr=udp%3A%2F%2Ftracker.leechers-paradise.org%3A6969&amp;tr=udp%3A%2F%2Fzer0day.ch%3A1337&amp;tr=udp%3A%2F%2Fopen.demonii.com%3A1337&amp;tr=udp%3A%2F%2Ftracker.coppersurfer.tk%3A6969&amp;tr=udp%3A%2F%2Fexodus.desync.com%3A6969","seeders":9,"leechers":2,"uploader":"MusicVideos-HQ","files":1,"time":1446411961,"description":"General\r\n\r\nFormat                         : MPEG-4\r\nFormat profile                 : Base Media\r\nCodec ID                       : isom\r\nFile size                      : 84.5 MiB\r\nDuration                       : 4mn 42s\r\nOverall bit rate               : 2 508 Kbps\r\nWriting application            : Lavf55.33.100\r\n\r\nVideo\r\nID                             : 1\r\nFormat                         : AVC\r\nFormat/Info                    : Advanced Video Codec\r\nFormat profile                 :   \r\nFormat settings, CABAC         : Yes\r\nFormat settings, ReFrames      : 3 frames\r\nCodec ID                       : avc1\r\nCodec ID/Info                  : Advanced Video Coding\r\nDuration                       : 4mn 42s\r\nBit rate                       : 2 377 Kbps\r\nWidth                          : 1 920 pixels\r\nHeight                         : 1 080 pixels\r\nDisplay aspect ratio           : 16:9\r\nFrame rate mode                : Variable\r\nFrame rate                     : 23.976 fps\r\nMinimum frame rate             : 23.974 fps\r\nMaximum frame rate             : 90 000.000 fps\r\nColor space                    : YUV\r\nChroma subsampling             : 4:2:0\r\nBit depth                      : 8 bits\r\nScan type                      : Progressive\r\nBits/(Pixel*Frame)             : 0.048\r\nStream size                    : 80.0 MiB (95%)\r\n\r\nAudio\r\nID                             : 2\r\nFormat                         : AAC\r\nFormat/Info                    : Advanced Audio Codec\r\nFormat profile                 : LC\r\nCodec ID                       : 40\r\nDuration                       : 4mn 42s\r\nBit rate mode                  : Constant\r\nBit rate                       : 126 Kbps\r\nChannel(s)                     : 2 channels\r\nChannel positions              : Front: L R\r\nSampling rate                  : 44.1 KHz\r\nCompression mode               : Lossy\r\nStream size                    : 4.23 MiB (5%)","torrent":{"xt":"urn:btih:268993b8e83cd4e76da0e072c0eccb5d6e780bbe","amp;dn":"Cali+Y+El+Dandee+Ft.+Juan+Magan+-+Por+Fin+Te+Encontre+%5B1080p%5D","amp;tr":["udp%3A%2F%2Ftracker.leechers-paradise.org%3A6969","udp%3A%2F%2Fzer0day.ch%3A1337","udp%3A%2F%2Fopen.demonii.com%3A1337","udp%3A%2F%2Ftracker.coppersurfer.tk%3A6969","udp%3A%2F%2Fexodus.desync.com%3A6969"],"infoHash":"268993b8e83cd4e76da0e072c0eccb5d6e780bbe","infoHashBuffer":{"type":"Buffer","data":[38,137,147,184,232,60,212,231,109,160,224,114,192,236,203,93,110,120,11,190]},"announce":[],"urlList":[]}}